<?xml version="1.0" standalone="yes"?>
<svg xmlns="http://www.w3.org/2000/svg" width="432" height="432">
<path style="fill:#040302; stroke:none;" d="M0 0L0 432L432 432L432 0L0 0z"/>
<path style="fill:#99412a; stroke:none;" d="M227 128L239 122L236 130L232 130L232 131L242 159C246.485 157.408 256.071 153.783 257.079 162.015C257.866 168.44 246.64 169.888 244.889 176.005C243.669 180.264 240.888 189.435 244.028 193.397C246.168 196.097 251.216 194.738 254 194.112C263.004 192.086 271.412 189.402 279 184C279.001 196.27 280.488 207.644 285.289 218.996C288.031 225.48 293.56 230.682 294.211 238C294.864 245.352 290.646 252.056 289 259C318.082 258.381 306.781 228.681 304.454 211C302.874 199.002 309.854 186.38 309.406 174C309.109 165.806 307.571 159.143 300.91 153.684C298.224 151.484 293.999 150.519 291.938 147.698C286.54 140.306 287.136 131.077 279.535 124.134C265.666 111.465 230.38 101.853 227 128z"/>
<path style="fill:#ae975c; stroke:none;" d="M133 112L134 113L133 112z"/>
<path style="fill:#f6e5d5; stroke:none;" d="M229 216L229 215L249 211C244.715 199.333 239.232 185.072 245.572 173.059C248.198 168.083 256.524 169.411 257.083 163C257.841 154.322 245.981 157.372 242 160C239.334 152.95 237.926 134.9 232 131L238 123C230.929 125.08 225.561 130.016 219 133.013C216.677 134.074 213.493 133.704 211.604 135.603C209.055 138.166 210.595 147.438 204.316 146.221C201.229 145.623 199.857 135.72 195.907 133.441C189.952 130.007 184.427 133.618 179.275 131.558C176.42 130.416 175.569 126.504 172.79 124.924C163.67 119.74 136.142 106.315 127.8 116.225C126.158 118.176 125.192 120.594 124.442 123C122.906 127.931 121.262 133.865 124.558 138.468C130.714 147.065 140.093 142.533 140.791 156C141.821 175.884 128.948 199.605 134.8 219C138.514 231.309 153.59 237.834 165 239.753C185.033 243.123 204.813 246.522 225 249.282C236.168 250.81 246.529 268.367 258.896 263.396C267.706 259.854 264.128 247.657 262.293 241C257.324 222.965 247.164 216 229 216z"/>
<path style="fill:#4ac3eb; stroke:none;" d="M139 112L140 113L139 112M144 114L145 115L144 114z"/>
<path style="fill:#ae975c; stroke:none;" d="M157 119L158 120L157 119M236 122L236 123L239 123L236 122M234.667 123.333L235.333 123.667L234.667 123.333M233 124L234 125L233 124M231 125L232 126L231 125M236 125L237 126L236 125M280 125L281 126L280 125M123 126L124 127L123 126M230 126L231 127L230 126M228 127L229 128L228 127M235.333 128.667L235.667 129.333L235.333 128.667z"/>
<path style="fill:#4ac3eb; stroke:none;" d="M185 130L186 131L185 130M177 131L178 132L177 131z"/>
<path style="fill:#ae975c; stroke:none;" d="M190 131L191 132L190 131M232.667 131.333L233.333 131.667L232.667 131.333M235 133L235 138L236 138L235 133z"/>
<path style="fill:#040302; stroke:none;" d="M237.333 133.667L237.667 134.333L237.333 133.667z"/>
<path style="fill:#ae975c; stroke:none;" d="M223 137L225 139L223 137z"/>
<path style="fill:#4ac3eb; stroke:none;" d="M190 138L191 139L190 138M192 138L193 139L192 138M194 138L195 139L194 138z"/>
<path style="fill:#99412a; stroke:none;" d="M223 138C223.126 143.179 224.19 145.762 229 148L229 147L223 138z"/>
<path style="fill:#4ac3eb; stroke:none;" d="M125 139L126 140L125 139z"/>
<path style="fill:#ae975c; stroke:none;" d="M222 139L222 143L223 143L222 139z"/>
<path style="fill:#4ac3eb; stroke:none;" d="M188 140L189 141L188 140M190 140L191 141L190 140M192 140L192 141L198 141L192 140M180 141L180 142L185 143L180 141z"/>
<path style="fill:#ae975c; stroke:none;" d="M236.333 141.667L236.667 142.333L236.333 141.667z"/>
<path style="fill:#4ac3eb; stroke:none;" d="M130 142L131 143L130 142M186 142L187 143L186 142M188 142L189 143L188 142M190 142L191 143L190 142M192 142L193 143L192 142M194 142L195 143L194 142M196 142L196 143L198 143L198 144L188 144L188 145L197 145L197 146L192 146L192 147L196 147L196 148L184 148L184 149L194 149L194 150L180 152L180 153L191 153L191 154L184 154L184 155L189 155L189 156L180 156L180 157L187 157L187 158L185 158L185 159L203 153L203 151L198 149L199 142L196 142z"/>
<path style="fill:#ae975c; stroke:none;" d="M224 143L225 144L224 143z"/>
<path style="fill:#4ac3eb; stroke:none;" d="M178 144L179 145L178 144M180 144L181 145L180 144M182 144L183 145L182 144M184 144L184 145L187 145L184 144z"/>
<path style="fill:#ae975c; stroke:none;" d="M223 144L224 145L223 144M225 144L226 145L225 144M226 145L227 146L226 145M237.333 145.667L237.667 146.333L237.333 145.667z"/>
<path style="fill:#4ac3eb; stroke:none;" d="M180 146L181 147L180 146M182 146L183 147L182 146M184 146L185 147L184 146M186 146L187 147L186 146M188 146L189 147L188 146M190 146L191 147L190 146z"/>
<path style="fill:#ae975c; stroke:none;" d="M225 146L226 147L225 146M228 146L229 147L228 146M227 147L228 148L227 147z"/>
<path style="fill:#4ac3eb; stroke:none;" d="M176 148L177 149L176 148M178 148L179 149L178 148M180 148L181 149L180 148M182 148L183 149L182 148z"/>
<path style="fill:#ae975c; stroke:none;" d="M238.333 149.667L238.667 150.333L238.333 149.667z"/>
<path style="fill:#4ac3eb; stroke:none;" d="M176 150L177 151L176 150M180 150L181 151L180 150M182 150L183 151L182 150M184 150L185 151L184 150M186 150L187 151L186 150M188 150L189 151L188 150M190 150L191 151L190 150z"/>
<path style="fill:#ae975c; stroke:none;" d="M205 153L209 151L205 153z"/>
<path style="fill:#99412a; stroke:none;" d="M203 159L209 151L203 159z"/>
<path style="fill:#4ac3eb; stroke:none;" d="M178 152L179 153L178 152z"/>
<path style="fill:#ae975c; stroke:none;" d="M239.333 152.667L239.667 153.333L239.333 152.667z"/>
<path style="fill:#040302; stroke:none;" d="M171 153C168.549 157.229 164.647 161.092 163.596 166C161.78 174.49 164.582 185.353 164.961 194C165.163 198.622 163.232 207.626 167.514 210.836C179.866 220.095 206.943 211.678 220 208C218.835 201.994 218.328 194.427 214.775 189.263C209.169 181.112 195.302 178.515 196.231 166C196.463 162.882 198.025 159.93 199 157C188.73 163.986 180.38 164.508 173 153L171 153z"/>
<path style="fill:#ae975c; stroke:none;" d="M208 153L209 154L208 153M170 154L171 155L170 154z"/>
<path style="fill:#4ac3eb; stroke:none;" d="M178 154L179 155L178 154M180 154L181 155L180 154M182 154L183 155L182 154z"/>
<path style="fill:#ae975c; stroke:none;" d="M204 154L205 155L204 154M207 155L208 156L207 155M240.333 155.667L240.667 156.333L240.333 155.667M247 156L247 157L253 157L247 156M245 157L246 158L245 157M254 157L255 158L254 157M304 157L305 158L304 157M241 158L242 159L241 158M242 159L243 160L242 159M257.333 160.667L257.667 161.333L257.333 160.667M257.333 163.667L257.667 164.333L257.333 163.667M253 168L254 169L253 168M247 169L247 170L252 170L247 169z"/>
<path style="fill:#99412a; stroke:none;" d="M163 170L164 171L163 170z"/>
<path style="fill:#ae975c; stroke:none;" d="M246 170L247 171L246 170M245.333 172.667L245.667 173.333L245.333 172.667M138 174L139 175L138 174M244 175L244 178L245 178L244 175M243.333 180.667L243.667 181.333L243.333 180.667M242 186L242 191L243 191L242 186M243 194L244 195L243 194M244 195L245 196L244 195M134 204L135 205L134 204M247 207L248 208L247 207z"/>
<path style="fill:#99412a; stroke:none;" d="M165 208L166 209L165 208z"/>
<path style="fill:#ae975c; stroke:none;" d="M165 209L166 210L165 209z"/>
<path style="fill:#99412a; stroke:none;" d="M203 211L204 212L203 211z"/>
<path style="fill:#4ac3eb; stroke:none;" d="M229 215L229 216L246 218.09L258 228C255.943 223.462 253.878 215.691 249.61 212.773C244.608 209.354 234.315 213.903 229 215z"/>
<path style="fill:#99412a; stroke:none;" d="M172 212L173 213L172 212z"/>
<path style="fill:#4ac3eb; stroke:none;" d="M226 216L226 217L229 217L226 216z"/>
<path style="fill:#ae975c; stroke:none;" d="M134 218L135 219L134 218M163 239L164 240L163 239z"/>
<path style="fill:#4ac3eb; stroke:none;" d="M202 290C218.579 281.529 244.105 281.74 262 286L265 257C261.596 260.245 259.368 264.362 254 263.652C244.897 262.448 240.449 254.917 233 251.013C225.42 247.04 213.411 247.758 205 246.41C202.081 245.943 198.187 244.602 195.61 246.643C187.52 253.046 192.097 264.372 194.95 272C197.196 278.006 199.404 284.144 202 290z"/>
<path style="fill:#ae975c; stroke:none;" d="M291 251L292 252L291 251z"/>
<path style="fill:#f6e5d5; stroke:none;" d="M264.333 264.667L264.667 265.333L264.333 264.667M263 273L264 274L263 273M208 321L244 321C247.888 321 254.221 322.217 256.91 318.682C263.219 310.39 259.721 295.572 262 286C248.72 282.075 231.627 283.415 218 284.95C214.013 285.399 206.433 285.523 204.067 289.419C200.428 295.411 207.116 314.002 208 321z"/>
<path style="fill:#ae975c; stroke:none;" d="M260 301L261 302L260 301z"/>
</svg>
