<?xml version="1.0" standalone="yes"?>
<svg xmlns="http://www.w3.org/2000/svg" width="192" height="192">
<path style="fill:#0a0705; stroke:none;" d="M0 0L0 192L192 192L192 0L0 0z"/>
<path style="fill:#4a8ffd; stroke:none;" d="M27.0039 20.7423C16.1573 24.9444 20 43.8211 20 53L20 135C20 143.744 17.0216 159.352 22.0093 166.895C27.8416 175.716 46.8533 172 56 172L132 172C141.567 172 156.08 174.706 164.985 170.991C175.703 166.518 172 148.261 172 139L172 56C172 47.5739 175.161 30.9493 169.566 24.1088C163.295 16.4405 144.944 20 136 20L60 20C50.452 20 35.9482 17.2771 27.0039 20.7423z"/>
<path style="fill:#924224; stroke:none;" d="M102 49L108 46L109 65C115.632 64.3766 120.221 69.6063 112 72L110 84C117.62 83.979 123.599 82.1816 130 78C130 92.5557 140.268 104.32 135 118C149.127 116.425 143.407 103.259 142.315 94C141.48 86.9246 145.441 80.1524 144.902 73C144.386 66.1474 139.467 64.5945 135.843 59.7407C133.353 56.4061 132.749 52.2436 129.786 49.108C122.887 41.8068 106.106 37.0562 102 49z"/>
<path style="fill:#f0e2d6; stroke:none;" d="M104 96L104 95L113 93C111.148 87.2071 108.861 81.0661 111.264 75.0579C112.304 72.4562 117.585 70.086 117.079 67.26C116.479 63.9089 111.014 65.5272 109 66L107 47L94.5841 53.9699L90.4213 59.2299L85.571 53.706L76 53L70 46C64.0695 46.0482 54.674 38.6358 49.8187 44.3179C41.5695 53.9718 54.8883 55.1104 56.6782 62.0548C60.5148 76.9393 43.3146 97.384 63.0895 106.363C75.4054 111.955 90.5598 109.862 103 114.585C107.416 116.261 113.356 123.7 118.682 120.728C121.975 118.89 120.779 113.939 120.192 111C118.328 101.658 113.79 96.0886 104 96z"/>
<path style="fill:#a2806e; stroke:none;" d="M116 42L117 43L116 42M122 44L123 45L122 44M125 45L126 46L125 45M107.333 46.6667L107.667 47.3333L107.333 46.6667M105 47L106 48L105 47M103 48L104 49L103 48M106 48L105 52L106 52L106 48M129 48L130 49L129 48M102 49L103 50L102 49M106 52L106 57L107 57L106 52M132 52L133 53L132 52M99 55L103 60L99 55M107 58L107 61L108 61L107 58M56.3333 59.6667L56.6667 60.3333L56.3333 59.6667M90 62L90 63L93 63L90 62z"/>
<path style="fill:#4a8ffd; stroke:none;" d="M72 62C65.3246 71.7233 68.7722 82.9644 69 94C79.3392 95.9195 88.9199 94.609 99 92C96.5915 80.362 85.5045 76.1081 87 64C81.5291 66.9939 78.0601 67.1213 74 62L72 62z"/>
<path style="fill:#924224; stroke:none;" d="M91 62L89 66L91 62z"/>
<path style="fill:#a2806e; stroke:none;" d="M108.333 62.6667L108.667 63.3333L108.333 62.6667M89 64L90 65L89 64M91 64L92 65L91 64M112 64L112 65L116 65L112 64M90 65L91 66L90 65M109.667 65.3333L110.333 65.6667L109.667 65.3333M117 69L118 70L117 69M116 70L117 71L116 70M112 71L112 72L116 72L112 71M111.333 73.6667L111.667 74.3333L111.333 73.6667M110.333 77.6667L110.667 78.3333L110.333 77.6667M54 82L55 83L54 82M110.667 84.3333L111.333 84.6667L110.667 84.3333M68 87L69 88L68 87M53 89L54 90L53 89M97 92L98 93L97 92M92 93L93 94L92 93M71 94L72 95L71 94M88 94L89 95L88 94M77 95L77 96L83 96L77 95M53 97L54 98L53 97M54 99L55 100L54 99M144 103L145 104L144 103M137 111L138 112L137 111z"/>
<path style="fill:#f0e2d6; stroke:none;" d="M89 134L92 151C97.3672 151 113.32 153.682 117.012 149.397C120.263 145.622 118.89 137.664 120 133C110.736 130.262 98.1942 131.416 89 134z"/>
<path style="fill:#a2806e; stroke:none;" d="M119.333 134.667L119.667 135.333L119.333 134.667z"/>
<path style="fill:#924224; stroke:none;" d="M20 164L21 165L20 164M171 164L172 165L171 164z"/>
</svg>
