<?xml version="1.0" standalone="yes"?>
<svg xmlns="http://www.w3.org/2000/svg" width="512" height="512">
<path style="fill:#120b08; stroke:none;" d="M0 0L0 512L512 512L512 0L0 0z"/>
<path style="fill:#903f25; stroke:none;" d="M284 44L311 29L301 49L301 50C310.842 54.631 311 64.4773 311 74L308 74C308 65.7158 307.299 60.2162 303 53L302 53C304.953 76.3663 310.045 98.1732 319 120C328.968 115.586 356.79 103.918 356.627 127C356.495 145.602 331.833 138.112 327.674 150.005C323.312 162.48 320.002 176.737 320.002 190C320.002 193.435 319.525 200.605 322.6 202.971C326.891 206.276 340.012 202.252 345 201.414C369.417 197.31 389.16 187.86 410 175C410 201.749 411.211 227.776 421.204 253C428.995 272.667 444.643 288.372 446.7 310C448.405 327.934 436.937 341.523 434 358C440.414 357.868 446.918 356.699 453 354.644C499.742 338.853 472.579 283.526 469.17 251C464.847 209.758 491.377 168.679 475.934 128C472.03 117.714 464.702 108.657 455 103.313C449.93 100.521 439.418 99.444 436.879 93.8912C427.128 72.5663 426.535 51.0996 406.996 34.4391C393.251 22.7192 379.51 21.0236 363 16.4321C353.948 13.9147 346.597 7.71533 337 5.80786C309.334 0.309204 284.083 13.9192 284 44z"/>
<path style="fill:#f6e6d7; stroke:none;" d="M276 259L276 258C294.378 255.286 315.097 241.512 334 246C330.242 229.758 322.035 213.63 320.174 197C318.116 178.604 324.403 160.201 330 143C354.551 148.777 367.177 113.213 339 113.005C335.927 112.982 332.937 113.119 330 114.105C325.716 115.544 322.321 118.019 319 121C313.975 103.421 306.947 87.2755 303.92 69C302.552 60.7401 303.433 53.2758 294 51C296.079 47.4317 298.273 47.935 302 49L311 29L265 58.6821L246.434 62.4337L244.393 78.5756L232 95C228.998 93.0965 223.96 91.8377 222.028 88.7253C220.039 85.5224 221.19 80.6052 220.535 77C219.074 68.9493 214.321 62.3606 207 58.6582C200.188 55.2136 190.77 51.0042 183 52.2137C177.533 53.0648 172.728 59.5263 167.004 56.8055C158.745 52.8798 160.467 42.1107 151.996 38.0548C130.838 27.9247 107.02 21.2593 85 13.0501C74.5767 9.16418 63.9528 4.35764 53 9.35263C42.4426 14.1673 39.6033 25.0023 35.9468 35C33.2024 42.5035 30.0494 49.908 32.0432 58C36.4971 76.0761 60.4855 80.8783 76 85.7176C80.7388 87.1957 94.516 90.0252 96.2269 95.2245C98.3005 101.527 95.5212 111.212 96.1698 118C99.6431 154.351 89.2 192.722 84.8449 229C82.7395 246.538 79.0411 262.658 84.7492 280C93.9699 308.013 118.898 308.54 144 313.6C176.927 320.238 209.744 326.937 243 331.729C258.595 333.976 280.531 332.655 294.961 338.589C300.751 340.97 305.445 348.689 310 352.91C320.879 362.99 344.238 377.31 359.999 371.258C366.631 368.711 370.109 360.601 370.826 354C372.469 338.891 367.981 321.271 363.33 307C354.772 280.739 337.461 257.268 308 255.184C297.451 254.438 286.415 257.677 276 259z"/>
<path style="fill:#feceac; stroke:none;" d="M118 25L118 26L124 28L118 25M130 31L137 33C135.791 29.0195 132.672 26.9395 130 31M311 28L312 29L311 28M308.667 29.3333L309.333 29.6667L308.667 29.3333M306 30L307 31L306 30M304 31L305 32L304 31M309 31L310 32L309 31M302 32L303 33L302 32M308 32L309 33L308 32M300 33L301 34L300 33M298 34L299 35L298 34M297 35L298 36L297 35M306 35L307 36L306 35M295 36L296 37L295 36M305 37L306 38L305 37M292 38L293 39L292 38M304 39L305 40L304 39M289 40L290 41L289 40M286 42L287 43L286 42M303.333 42.6667L303.667 43.3333L303.333 42.6667z"/>
<path style="fill:#903f25; stroke:none;" d="M295 47L295 51L296 51L297 48L295 47z"/>
<path style="fill:#feceac; stroke:none;" d="M297 47L298 48L297 47M302.333 47.6667L302.667 48.3333L302.333 47.6667z"/>
<path style="fill:#120b08; stroke:none;" d="M295 48C297.028 51.3553 300.704 52.316 303.316 55.2137C308.215 60.6466 308 67.1575 308 74L311 74C311 61.7876 309.797 49.4846 295 48z"/>
<path style="fill:#903f25; stroke:none;" d="M299 48L300 49L299 48z"/>
<path style="fill:#feceac; stroke:none;" d="M300 48L301 49L300 48M294 50L295 51L294 50M296.667 51.3333L297.333 51.6667L296.667 51.3333z"/>
<path style="fill:#903f25; stroke:none;" d="M298 51L299 52L298 51z"/>
<path style="fill:#feceac; stroke:none;" d="M299 52L300 53L299 52z"/>
<path style="fill:#903f25; stroke:none;" d="M300 52L301 53L300 52z"/>
<path style="fill:#feceac; stroke:none;" d="M301 53L302 54L301 53M302 56L302 60L303 60L302 56z"/>
<path style="fill:#47c1eb; stroke:none;" d="M152 97C160.702 99.7375 158.589 105.762 163.649 111.775C168.039 116.993 183.304 121.069 190 120.725C199.559 120.232 203.153 112.138 210.285 107.697C214.327 105.18 218.568 110.293 222.362 107.929C233.656 100.893 220.849 94.0259 214 93C217.53 80.4378 215.607 62.3666 198 64.3434C191.689 65.0519 187.766 70.2049 182 72.1458C177.636 73.6148 171.309 71.4163 167.498 74.0278C162.119 77.7145 155.356 91.1663 152 97z"/>
<path style="fill:#feceac; stroke:none;" d="M303.333 65.6667L303.667 66.3333L303.333 65.6667M274 66L275 67L274 66z"/>
<path style="fill:#903f25; stroke:none;" d="M273 67L274 68L273 67z"/>
<path style="fill:#120b08; stroke:none;" d="M274 67C269.717 77.151 275.075 91.515 288 90L288 89C282.908 86.5728 277.046 83.9874 275.434 78C274.389 74.1168 276.232 70.458 274 67z"/>
<path style="fill:#903f25; stroke:none;" d="M275 67L276 68L275 67z"/>
<path style="fill:#feceac; stroke:none;" d="M272 68L273 69L272 68M276.333 68.6667L276.667 69.3333L276.333 68.6667z"/>
<path style="fill:#903f25; stroke:none;" d="M272.333 69.6667L272.667 70.3333L272.333 69.6667M275.333 70.6667L275.667 71.3333L275.333 70.6667z"/>
<path style="fill:#feceac; stroke:none;" d="M271 71L271 74L272 74L271 71M304.333 71.6667L304.667 72.3333L304.333 71.6667M275.333 72.6667L275.667 73.3333L275.333 72.6667z"/>
<path style="fill:#47c1eb; stroke:none;" d="M147 83L155 74C150.463 75.6269 148.813 78.6867 147 83z"/>
<path style="fill:#903f25; stroke:none;" d="M271 74L271 77L272 77L271 74z"/>
<path style="fill:#feceac; stroke:none;" d="M305.333 76.6667L305.667 77.3333L305.333 76.6667M271.333 77.6667L271.667 78.3333L271.333 77.6667M275 77L276 78L275 77z"/>
<path style="fill:#903f25; stroke:none;" d="M275.333 78.6667L275.667 79.3333L275.333 78.6667M272.333 79.6667L272.667 80.3333L272.333 79.6667z"/>
<path style="fill:#feceac; stroke:none;" d="M276 80L277 81L276 80M272 81L273 82L272 81z"/>
<path style="fill:#903f25; stroke:none;" d="M276 81L277 82L276 81z"/>
<path style="fill:#feceac; stroke:none;" d="M306.333 81.6667L306.667 82.3333L306.333 81.6667z"/>
<path style="fill:#903f25; stroke:none;" d="M273 82L274 83L273 82M277 82L278 83L277 82M274 83L275 84L274 83M278 83L279 84L278 83z"/>
<path style="fill:#feceac; stroke:none;" d="M274 84L275 85L274 84z"/>
<path style="fill:#903f25; stroke:none;" d="M279 84L280 85L279 84z"/>
<path style="fill:#feceac; stroke:none;" d="M75 85C74.3038 94.8556 76.9991 104.319 76.7407 114C76.2123 133.805 71.3029 154.345 68.7184 174C65.2512 200.367 57.311 229.358 60.1736 256C62.0057 273.051 73.9634 283.74 89 290L81.1844 260L85.8696 222L96.2816 145L96 108L95.9576 93.6991L75 85M275 85L276 86L275 85z"/>
<path style="fill:#903f25; stroke:none;" d="M280 85L281 86L280 85z"/>
<path style="fill:#feceac; stroke:none;" d="M281 85L282 86L281 85M307.333 85.6667L307.667 86.3333L307.333 85.6667z"/>
<path style="fill:#47c1eb; stroke:none;" d="M93 86L93 87L99 88L93 86z"/>
<path style="fill:#feceac; stroke:none;" d="M276 86L278 88L276 86z"/>
<path style="fill:#903f25; stroke:none;" d="M277 86L278 87L277 86M282 86L283 87L282 86z"/>
<path style="fill:#feceac; stroke:none;" d="M283 86L284 87L283 86z"/>
<path style="fill:#903f25; stroke:none;" d="M278 87L279 88L278 87M284.667 87.3333L285.333 87.6667L284.667 87.3333z"/>
<path style="fill:#feceac; stroke:none;" d="M286 87L287 88L286 87z"/>
<path style="fill:#903f25; stroke:none;" d="M279.667 88.3333L280.333 88.6667L279.667 88.3333M287 88L288 89L287 88z"/>
<path style="fill:#f6e6d7; stroke:none;" d="M74 89L75 90L74 89z"/>
<path style="fill:#903f25; stroke:none;" d="M281.667 89.3333L282.333 89.6667L281.667 89.3333z"/>
<path style="fill:#feceac; stroke:none;" d="M288 89L289 90L288 89M308.333 89.6667L308.667 90.3333L308.333 89.6667M283 90L284 91L283 90z"/>
<path style="fill:#903f25; stroke:none;" d="M284 90L285 91L284 90M287 90L288 91L287 90z"/>
<path style="fill:#feceac; stroke:none;" d="M285 91L285 92L288 92L285 91z"/>
<path style="fill:#f6e6d7; stroke:none;" d="M74 92L75 93L74 92z"/>
<path style="fill:#feceac; stroke:none;" d="M309.333 93.6667L309.667 94.3333L309.333 93.6667M234 99L237 98L234 99z"/>
<path style="fill:#903f25; stroke:none;" d="M238 97C234.472 98.5564 219.328 112.641 225.644 116.863C233.222 121.931 239.373 101.79 238 97z"/>
<path style="fill:#feceac; stroke:none;" d="M238 97L239 98L238 97M310 97L311 98L310 97M239 98L239 102L240 102L239 98M311 100L312 101L311 100z"/>
<path style="fill:#120b08; stroke:none;" d="M132 246C149.697 250.057 167.684 254.427 186 253.985C202.482 253.588 218.921 249.326 235 245.997C241.667 244.617 266.544 242.917 266.902 234.981C267.426 223.38 262.272 209.855 258.667 199C257.336 194.992 256.387 189.754 253.351 186.637C249.374 182.554 242.776 180.378 238 177.302C225.754 169.413 213.675 157.797 210.518 143C208.025 131.317 214.685 122.495 218 112C208.366 110.432 201.074 124.897 190 125.812C181.91 126.48 166.962 121.534 161.214 115.786C157.824 112.397 155.644 100.195 149.173 101.752C145.792 102.565 143.298 107.436 141.373 110C135.574 117.729 129.025 125.156 127.44 135C125.57 146.615 128.108 160.285 128.91 172C130.581 196.39 131.984 221.57 132 246z"/>
<path style="fill:#feceac; stroke:none;" d="M146 103L147 104L146 103M229 103L230 104L229 103M312 103L313 104L312 103z"/>
<path style="fill:#f6e6d7; stroke:none;" d="M75 104L76 105L75 104z"/>
<path style="fill:#feceac; stroke:none;" d="M238 104L239 105L238 104M237 106L238 107L237 106M313 106L314 107L313 106M236 108L237 109L236 108M314 109L315 110L314 109z"/>
<path style="fill:#f6e6d7; stroke:none;" d="M76 110L77 111L76 110z"/>
<path style="fill:#feceac; stroke:none;" d="M235 110L236 111L235 110M234 111L235 112L234 111M315 111L316 112L315 111M334 112L334 113L343 113L334 112M224 113L225 114L224 113M330.667 113.333L331.333 113.667L330.667 113.333M345 113L346 114L345 113M232 114L233 115L232 114M316 114L317 115L316 114M328 114L329 115L328 114M348 114L349 115L348 114M231 115L232 116L231 115M326 115L327 116L326 115M317 116L318 117L317 116M324 116L325 117L324 116M351 116L352 117L351 116M224 117L225 118L224 117M228 117L229 118L228 117M352 117L353 118L352 117M318 118L319 119L318 118M353 118L354 119L353 118M354 119L355 120L354 119M319 120L320 121L319 120M355 121L356 122L355 121M356 124L356 130L357 130L356 124z"/>
<path style="fill:#f6e6d7; stroke:none;" d="M74 131L75 132L74 131z"/>
<path style="fill:#feceac; stroke:none;" d="M355 132L356 133L355 132M353 135L354 136L353 135M352 136L353 137L352 136M351 137L352 138L351 137M350 138L351 139L350 138M347 140L348 141L347 140M345 141L346 142L345 141M343 142L344 143L343 142M330.667 143.333L331.333 143.667L330.667 143.333M338.667 143.333L339.333 143.667L338.667 143.333M329 144L330 145L329 144M127 146L128 147L127 146M328 147L329 148L328 147M327 150L328 151L327 150M326 153L327 154L326 153M325.333 156.667L325.667 157.333L325.333 156.667M324 160L325 161L324 160M323 164L324 165L323 164M322.333 168.667L322.667 169.333L322.333 168.667M321 173L321 176L322 176L321 173M320 180L320 183L321 183L320 180z"/>
<path style="fill:#f6e6d7; stroke:none;" d="M66 190L67 191L66 190z"/>
<path style="fill:#feceac; stroke:none;" d="M129 191L130 192L129 191M320 197L320 200L321 200L320 197M321 203L322 204L321 203z"/>
<path style="fill:#f6e6d7; stroke:none;" d="M63 212L64 213L63 212M60 234L61 235L60 234z"/>
<path style="fill:#feceac; stroke:none;" d="M131 246C132.328 262.104 154.971 265.031 168 267.789C193.118 273.108 217.022 271.795 242 266.8C248.062 265.588 261.915 265.233 266.142 260.436C270.123 255.918 268 244.636 268 239C240.8 244.125 212.779 253.438 185 253.985C166.392 254.351 149.135 247.581 131 246z"/>
<path style="fill:#47c1eb; stroke:none;" d="M276 258L276 259C299.997 257.104 321.859 250.265 340.961 270.004C345.969 275.179 349.988 281.054 354 287C355.805 280.879 349.519 272.222 346.576 267C343.234 261.072 339.532 249.873 333.621 246.179C329.2 243.416 321.693 245.646 317 246.662C303.105 249.67 289.799 254.808 276 258z"/>
<path style="fill:#f6e6d7; stroke:none;" d="M146 249L147 250L146 249M212 250L213 251L212 250M157 251L158 252L157 251M201 252L202 253L201 252z"/>
<path style="fill:#47c1eb; stroke:none;" d="M272 259L272 260L275 260L272 259z"/>
<path style="fill:#f6e6d7; stroke:none;" d="M70 278L71 279L70 278M71 279L72 280L71 279M79 285L80 286L79 285M81 286L82 287L81 286z"/>
<path style="fill:#feceac; stroke:none;" d="M103 304L104 305L103 304M105 305L106 306L105 305M188 322L189 323L188 322M193 323L194 324L193 323z"/>
<path style="fill:#47c1eb; stroke:none;" d="M224 433C236.469 424.628 253.444 423.286 268 421.831C300.467 418.585 332.6 421.443 365 424L371 356C362.692 370.704 355.775 374.691 339 369.255C328.66 365.904 318.978 360.302 311 352.91C306.44 348.684 301.681 341.024 295.91 338.589C289.583 335.918 280.775 336.656 274 335.845C259.642 334.126 245.217 332.269 231 329.611C225.856 328.649 213.94 324.486 209.379 327.693C188.563 342.328 200.428 374.069 207.6 392C212.99 405.474 217.244 420.181 224 433z"/>
<path style="fill:#f6e6d7; stroke:none;" d="M238 507L324 507C330.116 507 348.609 510.08 352.914 505.397C357.194 500.741 357.449 489.982 358.41 484C361.607 464.107 362.477 443.966 365 424C330.101 419.589 292.928 417.75 258 422.729C251.121 423.71 228.764 425.049 225.644 432.418C223.576 437.302 228.695 447.933 229.79 453C233.674 470.964 235.703 488.825 238 507z"/>
</svg>
